PathFileType	4	(X/Y/Z)	C:/Users/beibeiliu/ov580/test_trc/User3\sequence.41_training_dense_left.trc
DataRate	CameraRate	NumFrames	NumMarkers	Units	OrigDataRate	OrigDataStartFrame	OrigNumFrames
120	120	12	19	mm	120	1	75
Frame#	Time	ThumbCMC			ThumbMCP			ThumbIP			ThumbTip			IndexMCP			IndexPIP			IndexTip			MiddleMCP			MiddlePIP			MiddleTip			RingMCP			RingPIP			RingTip			PinkyMCP			PinkyPIP			PinkyTip			BackHand1			BackHand2			BackHand3	
		X0	Y0	Z0	X1	Y1	Z1	X2	Y2	Z2	X3	Y3	Z3	X4	Y4	Z4	X5	Y5	Z5	X6	Y6	Z6	X7	Y7	Z7	X8	Y8	Z8	X9	Y9	Z9	X10	Y10	Z10	X11	Y11	Z11	X12	Y12	Z12	X13	Y13	Z13	X14	Y14	Z14	X15	Y15	Z15	X16	Y16	Z16	X17	Y17	Z17	X18	Y18	Z18	
0	0	-92.2073	1.8701	73.7447	-73.5266	-6.69296	53.9901	-52.2634	-12.5147	32.7299	-39.299	-20.8006	12.2865	-116.157	11.4266	-2.69059	-108.856	8.87516	-29.169	-104.891	1.16354	-59.4372	-140.859	12.2929	-8.26435	-143.313	7.70612	-37.5401	-145.978	-7.06225	-67.102	-160.438	5.57823	-0.79854	-166.68	2.024	-22.4658	-173.57	-10.1562	-47.1613	-181.523	-3.06319	18.256	-188.623	-8.06059	0.304333	-192.893	-17.332	-23.6017	-155.873	19.459	49.1835	-154.714	21.7606	84.0074	-123.363	22.6878	61.7222	
1	0.00833333	-94.5907	0.457212	73.1948	-73.1401	-6.32461	54.6013	-57.7352	-13.9852	33.1894	-40.9567	-22.3875	14.0939	-117.109	11.2221	-2.83242	-110.685	8.30122	-31.9104	-106.984	-0.38568	-58.5414	-141.015	11.7903	-9.46484	-142.515	7.74765	-33.7044	-146.299	-7.30525	-65.6769	-165.198	5.42666	3.16283	-166.126	1.09667	-21.5215	-173.808	-11.8665	-50.7768	-178.94	-4.01343	22.903	-190.327	-9.37966	-3.38722	-196.314	-16.1355	-21.3996	-158.659	17.4917	54.735	-155.146	21.7804	82.7532	-123.664	21.1107	61.6622	
2	0.0166667	-93.799	0.0975604	75.0651	-74.336	-7.25503	56.9731	-52.6853	-15.1189	31.0812	-43.5766	-23.899	17.1137	-110.743	11.6469	-6.12914	-109.57	8.43408	-29.6417	-101.61	0.762346	-54.2882	-142.158	12.7106	-5.96638	-141.824	7.24105	-34.7111	-141.715	-6.5475	-64.2711	-159.009	6.50667	4.58958	-166.363	0.259577	-25.5387	-173.63	-11.7315	-49.312	-179.893	-2.44389	21.9105	-189.581	-8.95409	-1.00108	-193.637	-18.1857	-21.0026	-158.548	18.5623	54.4613	-153.723	20.2507	82.717	-124.167	21.318	64.946	
3	0.025	-88.0377	3.92209	68.2468	-72.6885	-5.9476	51.085	-53.8325	-14.7153	29.5383	-42.9176	-24.497	14.8379	-111.858	14.6907	-7.4599	-103.703	10.5909	-34.7806	-105.621	1.57017	-55.1045	-137.998	15.7012	-6.19671	-140.72	8.81901	-38.3693	-142.478	-7.77087	-65.3776	-157.1	9.22586	0.584182	-165.067	2.37254	-25.6257	-168.424	-8.95437	-46.6239	-173.01	-1.30607	21.1118	-183.554	-6.36449	-3.00818	-191.893	-17.9723	-22.6727	-155.046	20.1209	50.1045	-155.612	22.7606	80.7746	-121.092	25.354	60.4229	
4	0.0333333	-93.0541	5.41033	70.9283	-73.0207	-4.86713	47.2714	-54.4595	-14.0758	28.0038	-44.0967	-24.5217	9.80432	-109.506	15.6432	-5.20294	-105.622	10.3741	-31.1312	-100.275	-1.06916	-55.1507	-135.788	14.4628	-13.3865	-135.806	2.85921	-41.4866	-135.376	-14.1903	-64.027	-159.773	3.96095	0.51194	-160.415	-3.87683	-29.0227	-163.68	-22.3666	-49.9394	-176.201	-6.85569	17.4969	-177.249	-13.2826	-4.26528	-182.599	-29.6723	-24.65	-157.025	19.8927	49.354	-152.009	23.1779	77.3258	-123.444	25.7513	59.4897	
5	0.0416667	-96.798	17.7952	65.6848	-76.8967	10.704	46.4862	-58.2639	4.22058	22.337	-44.0428	-4.32803	6.3666	-112.718	20.0345	-5.86334	-108.824	9.13752	-35.8328	-97.7998	-1.00438	-54.2788	-139.467	7.65884	-14.0522	-132.131	-1.6065	-40.6251	-124.355	-25.0238	-62.1986	-155.798	-6.75824	-2.22294	-152.453	-18.8553	-30.0402	-146.198	-37.029	-46.6606	-166.478	-19.2817	14.5171	-164.601	-28.9963	-5.34047	-158.341	-49.9841	-22.5806	-158.31	13.461	49.5744	-160.586	15.7618	76.607	-129.189	30.4229	58.3961	
6	0.05	-106.662	34.7541	62.1158	-83.8203	33.702	42.2657	-66.175	29.9353	23.7378	-51.491	25.9149	4.89923	-123.609	19.5142	-14.263	-111.725	16.7265	-35.4597	-97.7565	3.5412	-55.2726	-139.739	0.781882	-17.7698	-127.458	-4.48195	-41.1097	-104.587	-24.5624	-62.5114	-145.819	-13.4097	-3.28976	-137.995	-27.087	-29.367	-117.389	-42.7613	-48.4489	-153.051	-35.6111	12.0475	-141.955	-46.859	-10.249	-126.457	-59.71	-22.483	-159.24	1.64799	46.264	-166.229	3.1714	74.5643	-146.285	28.789	55.4715	
7	0.0583333	-121.724	42.4014	62.8511	-98.5989	47.6817	41.7813	-78.3382	53.3994	16.3915	-62.3088	53.4873	1.70846	-130.692	19.9323	-16.492	-114.113	18.3556	-42.2301	-97.846	10.1306	-57.0904	-137.073	-3.34938	-19.985	-122.421	-7.9944	-43.2784	-88.6225	-15.2134	-62.0578	-137.998	-20.3364	-6.42591	-124.064	-34.1003	-29.7465	-100.38	-40.8729	-43.7039	-136.166	-43.3082	8.74094	-122.925	-49.5212	-7.42419	-97.7667	-56.7823	-21.5299	-158.77	-14.1241	44.3444	-164.163	-9.39155	70.1621	-155.47	24.2487	50.5252	
8	0.0666667	-137.222	40.3596	57.8083	-118.094	52.4325	36.2999	-101.92	60.4848	15.0553	-85.6534	66.0037	-5.02365	-138.013	15.0446	-15.9712	-120.57	16.9417	-44.4103	-97.8214	21.5316	-60.4406	-136.228	-8.75208	-17.8899	-115.821	-12.0179	-45.847	-85.9431	-6.74906	-60.0824	-128.868	-27.7262	-7.95131	-111.485	-33.5154	-29.4847	-83.7861	-28.2498	-44.0004	-120.143	-45.1901	13.8439	-104.964	-47.3219	-5.45851	-79.6642	-47.2603	-19.2173	-151.649	-23.0327	41.5377	-158.935	-22.4031	72.3275	-160.7	10.1861	50.1	
9	0.075	-155.629	28.0862	59.0772	-144.303	51.7911	35.7444	-132.728	65.51	14.9936	-116.876	69.6963	-2.10391	-146.401	7.09684	-17.5506	-133.261	10.8027	-41.0854	-112.603	21.9574	-59.6	-136.142	-14.4583	-20.5744	-119.868	-8.72152	-45.7375	-91.9204	4.06629	-60.4052	-124.108	-28.1347	-9.66491	-105.212	-31.3849	-28.527	-80.7866	-17.3497	-42.8692	-110.204	-39.7052	13.9428	-89.7229	-40.1317	-5.8832	-70.6645	-30.9453	-18.0155	-145.028	-36.806	42.3347	-153.139	-36.5424	67.8991	-167.46	-5.91291	50.0396	
10	0.0833333	-173.359	14.2563	56.4184	-170.2	38.0478	36.826	-162.596	56.4966	14.1644	-151.493	69.3267	-4.29989	-152.648	-2.90761	-18.6989	-145.712	9.13053	-42.6065	-127.427	25.429	-60.9308	-135.945	-19.0972	-22.8171	-124.304	-8.20468	-45.2243	-100.866	10.8927	-61.6426	-116.573	-30.8004	-7.19903	-103.275	-24.0215	-29.9494	-85.068	-3.42932	-47.1604	-103.44	-33.7588	12.6071	-85.0512	-28.4481	-6.7295	-69.2668	-14.0424	-18.678	-138.154	-43.2016	41.2017	-145.094	-45.0237	65.6126	-168.479	-24.4808	48.0055	
11	0.0916667	-177.888	-0.405364	58.7409	-189.933	25.8951	38.8224	-188.166	46.086	16.4303	-176.19	59.1296	-0.277715	-158.33	-8.34774	-20.9481	-153.733	6.02779	-46.0973	-144.268	22.9307	-61.1229	-136.309	-20.3613	-21.8384	-125.34	-7.00733	-49.0018	-111.631	20.8087	-67.7816	-115.507	-25.9931	-7.79077	-106.456	-16.5909	-33.0502	-91.1566	2.69543	-49.6976	-98.4338	-24.7728	5.36773	-84.954	-16.7113	-7.80009	-67.945	2.34835	-22.0728	-130.042	-44.2872	36.6129	-133.869	-49.4999	65.3058	-165.662	-31.3234	44.6077	
